<?xml version="1.0" encoding="UTF-8"?>
<!DOCTYPE svg PUBLIC "-//W3C//DTD SVG 1.1//EN" "http://www.w3.org/Graphics/SVG/1.1/DTD/svg11.dtd">
<svg xmlns="http://www.w3.org/2000/svg" version="1.1" width="115px" height="123px" style="shape-rendering:geometricPrecision; text-rendering:geometricPrecision; image-rendering:optimizeQuality; fill-rule:evenodd; clip-rule:evenodd" xmlns:xlink="http://www.w3.org/1999/xlink">
<g><path style="opacity:0.922" fill="#fefffe" d="M 2.5,-0.5 C 23.8333,-0.5 45.1667,-0.5 66.5,-0.5C 76.4645,9.96508 86.6312,20.2984 97,30.5C 97.4998,39.1603 97.6664,47.8269 97.5,56.5C 101.846,56.3343 106.179,56.501 110.5,57C 112.35,57.6897 113.684,58.8564 114.5,60.5C 114.5,73.5 114.5,86.5 114.5,99.5C 112.99,100.836 111.323,102.003 109.5,103C 105.514,103.499 101.514,103.666 97.5,103.5C 97.666,108.844 97.4994,114.177 97,119.5C 95.955,120.373 95.1217,121.373 94.5,122.5C 63.5,122.5 32.5,122.5 1.5,122.5C 1.16667,121.5 0.5,120.833 -0.5,120.5C -0.5,80.8333 -0.5,41.1667 -0.5,1.5C 0.709515,1.06795 1.70951,0.40128 2.5,-0.5 Z M 7.5,7.5 C 24.8333,7.5 42.1667,7.5 59.5,7.5C 59.0592,16.2756 59.5592,24.9422 61,33.5C 62.214,35.0488 63.714,36.2155 65.5,37C 73.4931,37.4997 81.4931,37.6664 89.5,37.5C 89.5,43.8333 89.5,50.1667 89.5,56.5C 66.4976,56.3334 43.4976,56.5 20.5,57C 18.9512,58.214 17.7845,59.714 17,61.5C 16.3333,73.5 16.3333,85.5 17,97.5C 17.6853,100.057 19.1853,101.891 21.5,103C 44.1642,103.5 66.8309,103.667 89.5,103.5C 89.7892,107.106 89.4558,110.606 88.5,114C 61.5021,114.5 34.5021,114.667 7.5,114.5C 7.5,78.8333 7.5,43.1667 7.5,7.5 Z M 67.5,10.5 C 73.9648,16.4639 80.2981,22.6306 86.5,29C 80.5,29.6667 74.5,29.6667 68.5,29C 67.5236,22.9242 67.1903,16.7576 67.5,10.5 Z M 36.5,68.5 C 39.5184,68.3354 42.5184,68.502 45.5,69C 47.8333,70 49.5,71.6667 50.5,74C 47.5774,76.0317 44.9108,75.6984 42.5,73C 37.6381,72.5269 35.3047,74.8602 35.5,80C 35.3119,85.8123 37.9786,87.8123 43.5,86C 44.6184,84.9264 45.6184,83.7598 46.5,82.5C 47.7362,83.2458 49.0695,83.5792 50.5,83.5C 48.9627,89.7519 44.9627,92.2519 38.5,91C 31.4416,88.7242 28.6083,83.8909 30,76.5C 31.0015,72.8009 33.1681,70.1342 36.5,68.5 Z M 59.5,68.5 C 62.8499,68.335 66.1832,68.5017 69.5,69C 71.3615,70.0283 72.6948,71.5283 73.5,73.5C 72.5,73.8333 71.5,74.1667 70.5,74.5C 68.3275,73.454 66.1608,72.454 64,71.5C 62.3376,71.3875 61.1709,72.0542 60.5,73.5C 63.7504,75.9843 67.417,77.8177 71.5,79C 75.5299,82.9566 75.1965,86.6232 70.5,90C 64.3965,92.6253 59.2298,91.4587 55,86.5C 54.3123,85.6683 54.479,85.0016 55.5,84.5C 57.0709,83.6906 58.7376,83.3573 60.5,83.5C 60.33,84.8221 60.6634,85.9887 61.5,87C 63.5,87.6667 65.5,87.6667 67.5,87C 68.8602,85.0624 68.5268,83.3957 66.5,82C 62.5492,81.4638 59.0492,79.9638 56,77.5C 54.9804,73.5532 56.1471,70.5532 59.5,68.5 Z M 77.5,68.5 C 79.5,68.5 81.5,68.5 83.5,68.5C 84.8267,74.3139 86.66,79.9806 89,85.5C 90.8324,80.1724 92.6657,74.8391 94.5,69.5C 96.5,68.1667 98.5,68.1667 100.5,69.5C 97.8333,76.1667 95.1667,82.8333 92.5,89.5C 89.9659,90.7766 87.4659,90.7766 85,89.5C 81.9965,82.6546 79.4965,75.6546 77.5,68.5 Z"/></g>
</svg>
